<svg width="207" height="59" viewBox="0 0 207 59" fill="none" xmlns="http://www.w3.org/2000/svg">
<path d="M12.575 6.976V0.610999H23.295V6.909C27.0023 8.15966 30.1737 10.9513 32.809 15.284L23.697 21.046C22.4463 19.036 21.4413 17.7407 20.682 17.16C19.9673 16.5347 19.0293 16.222 17.868 16.222C16.6173 16.222 15.5677 16.5793 14.719 17.294C13.915 17.964 13.513 18.835 13.513 19.907C13.513 21.247 14.853 22.4083 17.533 23.391L21.553 24.865C25.4837 26.339 28.387 28.1703 30.263 30.359C32.1837 32.503 33.144 35.0937 33.144 38.131C33.144 41.1683 32.2507 43.9377 30.464 46.439C28.722 48.9403 26.3323 50.794 23.295 52V58.901H12.575V52.603C6.143 50.9057 2.19 46.372 0.716 39.002L11.436 36.121C11.9273 38.2203 12.374 39.672 12.776 40.476C13.58 42.1733 15.0093 43.022 17.064 43.022C18.4933 43.022 19.6993 42.553 20.682 41.615C21.7093 40.677 22.223 39.538 22.223 38.198C22.223 37.3493 21.8433 36.6347 21.084 36.054C20.3247 35.4287 18.9623 34.7363 16.997 33.977L13.178 32.503C6.16533 29.8677 2.659 25.669 2.659 19.907C2.659 16.8697 3.55233 14.1897 5.339 11.867C7.12567 9.54433 9.53767 7.914 12.575 6.976ZM70.7095 17.428H55.9695L55.2325 20.778C57.6892 20.8227 59.6992 21.0907 61.2625 21.582C62.8705 22.0287 64.4562 22.788 66.0195 23.86C68.1189 25.334 69.7492 27.21 70.9105 29.488C72.1165 31.7213 72.7195 34.1333 72.7195 36.724C72.7195 41.3693 71.0445 45.2777 67.6945 48.449C64.3892 51.6203 60.3022 53.206 55.4335 53.206C51.9049 53.206 48.8452 52.4243 46.2545 50.861C43.6639 49.2977 41.2072 46.774 38.8845 43.29L47.7955 37.126C48.9122 39.404 50.0512 41.012 51.2125 41.95C52.4185 42.888 53.8255 43.357 55.4335 43.357C57.2649 43.357 58.7835 42.754 59.9895 41.548C61.2402 40.2973 61.8655 38.7563 61.8655 36.925C61.8655 35.0937 61.2625 33.575 60.0565 32.369C58.8952 31.1183 57.4212 30.493 55.6345 30.493C54.5625 30.493 53.6692 30.694 52.9545 31.096C52.2399 31.4533 51.3912 32.1903 50.4085 33.307L42.0335 31.565L47.0585 7.311H70.7095V17.428ZM94.2742 6.105C100.26 6.105 104.793 8.115 107.875 12.135C111.002 16.1103 112.565 21.9617 112.565 29.689C112.565 37.3717 111.024 43.223 107.942 47.243C104.86 51.2183 100.327 53.206 94.3412 53.206C82.1025 53.206 75.9832 45.2553 75.9832 29.354C75.9832 21.7607 77.5465 15.9987 80.6732 12.068C83.7998 8.09266 88.3335 6.105 94.2742 6.105ZM101.644 30.091C101.644 20.6663 99.1875 15.954 94.2742 15.954C89.3608 15.954 86.9042 20.4653 86.9042 29.488C86.9042 34.2227 87.5072 37.729 88.7132 40.007C89.9192 42.2403 91.7952 43.357 94.3412 43.357C99.2098 43.357 101.644 38.935 101.644 30.091Z" fill="#00CC99"/>
<path d="M115.515 51.46L125.829 33.64L127.341 34.531L117.027 52.351L115.515 51.46ZM132.278 52H130.523V40.039H132.413L136.895 47.113L141.404 40.039H143.294V52H141.539V43.036L137.408 49.381H136.355L132.278 43.036V52ZM157.459 46.519H147.928C148.18 49.237 149.476 50.596 151.816 50.596C153.238 50.596 154.39 50.02 155.272 48.868L157.054 49.57C155.704 51.406 153.958 52.324 151.816 52.324C150.106 52.324 148.693 51.739 147.577 50.569C146.479 49.381 145.93 47.869 145.93 46.033C145.93 44.233 146.488 42.73 147.604 41.524C148.72 40.318 150.115 39.715 151.789 39.715C153.427 39.715 154.786 40.3 155.866 41.47C156.946 42.622 157.486 44.08 157.486 45.844C157.486 46.042 157.477 46.267 157.459 46.519ZM147.955 45.034H155.515C155.191 42.622 153.949 41.416 151.789 41.416C150.727 41.416 149.863 41.731 149.197 42.361C148.531 42.991 148.117 43.882 147.955 45.034ZM169.935 41.524L168.72 42.847C167.802 41.929 166.758 41.47 165.588 41.47C164.328 41.47 163.302 41.893 162.51 42.739C161.718 43.585 161.322 44.674 161.322 46.006C161.322 47.356 161.718 48.454 162.51 49.3C163.302 50.146 164.328 50.569 165.588 50.569C166.866 50.569 167.946 50.074 168.828 49.084L170.016 50.434C168.702 51.694 167.235 52.324 165.615 52.324C163.833 52.324 162.339 51.721 161.133 50.515C159.945 49.309 159.351 47.806 159.351 46.006C159.351 44.224 159.945 42.73 161.133 41.524C162.339 40.318 163.824 39.715 165.588 39.715C167.172 39.715 168.621 40.318 169.935 41.524ZM179.011 52V47.383H177.04C176.842 47.383 176.419 47.365 175.771 47.329L172.99 52H171.046L174.097 46.87C173.521 46.582 173.089 46.312 172.801 46.06C172.189 45.412 171.883 44.629 171.883 43.711C171.883 42.415 172.396 41.425 173.422 40.741C174.124 40.273 175.204 40.039 176.662 40.039H180.955V52H179.011ZM176.662 45.817H179.011V41.686H176.608C174.664 41.686 173.692 42.379 173.692 43.765C173.692 45.133 174.682 45.817 176.662 45.817ZM193.491 52H184.365V40.039H186.309V50.272H192.114V40.039H194.058V50.272H195.327V55.132H193.491V52ZM198.224 34.477L201.356 35.638L201.221 32.29H203.03L202.895 35.638L206.027 34.477L206.594 36.178L203.354 37.096L205.433 39.715L203.975 40.795L202.112 37.987L200.276 40.795L198.818 39.715L200.897 37.096L197.657 36.178L198.224 34.477Z" fill="#333399"/>
</svg>
