<svg width="169" height="59" viewBox="0 0 169 59" fill="none" xmlns="http://www.w3.org/2000/svg">
<path d="M12.075 6.976V0.610999H22.795V6.909C26.5023 8.15966 29.6737 10.9513 32.309 15.284L23.197 21.046C21.9463 19.036 20.9413 17.7407 20.182 17.16C19.4673 16.5347 18.5293 16.222 17.368 16.222C16.1173 16.222 15.0677 16.5793 14.219 17.294C13.415 17.964 13.013 18.835 13.013 19.907C13.013 21.247 14.353 22.4083 17.033 23.391L21.053 24.865C24.9837 26.339 27.887 28.1703 29.763 30.359C31.6837 32.503 32.644 35.0937 32.644 38.131C32.644 41.1683 31.7507 43.9377 29.964 46.439C28.222 48.9403 25.8323 50.794 22.795 52V58.901H12.075V52.603C5.643 50.9057 1.69 46.372 0.216 39.002L10.936 36.121C11.4273 38.2203 11.874 39.672 12.276 40.476C13.08 42.1733 14.5093 43.022 16.564 43.022C17.9933 43.022 19.1993 42.553 20.182 41.615C21.2093 40.677 21.723 39.538 21.723 38.198C21.723 37.3493 21.3433 36.6347 20.584 36.054C19.8247 35.4287 18.4623 34.7363 16.497 33.977L12.678 32.503C5.66533 29.8677 2.159 25.669 2.159 19.907C2.159 16.8697 3.05233 14.1897 4.839 11.867C6.62567 9.54433 9.03767 7.914 12.075 6.976ZM56.6755 6.105C62.6609 6.105 67.1945 8.115 70.2765 12.135C73.4032 16.1103 74.9665 21.9617 74.9665 29.689C74.9665 37.3717 73.4255 43.223 70.3435 47.243C67.2615 51.2183 62.7279 53.206 56.7425 53.206C44.5039 53.206 38.3845 45.2553 38.3845 29.354C38.3845 21.7607 39.9479 15.9987 43.0745 12.068C46.2012 8.09266 50.7349 6.105 56.6755 6.105ZM64.0455 30.091C64.0455 20.6663 61.5889 15.954 56.6755 15.954C51.7622 15.954 49.3055 20.4653 49.3055 29.488C49.3055 34.2227 49.9085 37.729 51.1145 40.007C52.3205 42.2403 54.1965 43.357 56.7425 43.357C61.6112 43.357 64.0455 38.935 64.0455 30.091Z" fill="#00CC99"/>
<path d="M77.9166 51.46L88.2306 33.64L89.7426 34.531L79.4286 52.351L77.9166 51.46ZM94.6796 52H92.9246V40.039H94.8146L99.2966 47.113L103.806 40.039H105.696V52H103.941V43.036L99.8096 49.381H98.7566L94.6796 43.036V52ZM119.861 46.519H110.33C110.582 49.237 111.878 50.596 114.218 50.596C115.64 50.596 116.792 50.02 117.674 48.868L119.456 49.57C118.106 51.406 116.36 52.324 114.218 52.324C112.508 52.324 111.095 51.739 109.979 50.569C108.881 49.381 108.332 47.869 108.332 46.033C108.332 44.233 108.89 42.73 110.006 41.524C111.122 40.318 112.517 39.715 114.191 39.715C115.829 39.715 117.188 40.3 118.268 41.47C119.348 42.622 119.888 44.08 119.888 45.844C119.888 46.042 119.879 46.267 119.861 46.519ZM110.357 45.034H117.917C117.593 42.622 116.351 41.416 114.191 41.416C113.129 41.416 112.265 41.731 111.599 42.361C110.933 42.991 110.519 43.882 110.357 45.034ZM132.337 41.524L131.122 42.847C130.204 41.929 129.16 41.47 127.99 41.47C126.73 41.47 125.704 41.893 124.912 42.739C124.12 43.585 123.724 44.674 123.724 46.006C123.724 47.356 124.12 48.454 124.912 49.3C125.704 50.146 126.73 50.569 127.99 50.569C129.268 50.569 130.348 50.074 131.23 49.084L132.418 50.434C131.104 51.694 129.637 52.324 128.017 52.324C126.235 52.324 124.741 51.721 123.535 50.515C122.347 49.309 121.753 47.806 121.753 46.006C121.753 44.224 122.347 42.73 123.535 41.524C124.741 40.318 126.226 39.715 127.99 39.715C129.574 39.715 131.023 40.318 132.337 41.524ZM141.412 52V47.383H139.441C139.243 47.383 138.82 47.365 138.172 47.329L135.391 52H133.447L136.498 46.87C135.922 46.582 135.49 46.312 135.202 46.06C134.59 45.412 134.284 44.629 134.284 43.711C134.284 42.415 134.797 41.425 135.823 40.741C136.525 40.273 137.605 40.039 139.063 40.039H143.356V52H141.412ZM139.063 45.817H141.412V41.686H139.009C137.065 41.686 136.093 42.379 136.093 43.765C136.093 45.133 137.083 45.817 139.063 45.817ZM155.892 52H146.766V40.039H148.71V50.272H154.515V40.039H156.459V50.272H157.728V55.132H155.892V52ZM160.625 34.477L163.757 35.638L163.622 32.29H165.431L165.296 35.638L168.428 34.477L168.995 36.178L165.755 37.096L167.834 39.715L166.376 40.795L164.513 37.987L162.677 40.795L161.219 39.715L163.298 37.096L160.058 36.178L160.625 34.477Z" fill="#333399"/>
</svg>
